<svg width="24" height="24" viewBox="0 0 24 24" fill="none" xmlns="http://www.w3.org/2000/svg">
<path d="M21.9875 0.721246C22.0074 0.833002 22.0035 0.947328 21.9762 1.05769C21.9489 1.16806 21.8988 1.2723 21.8285 1.36446C21.7583 1.45662 21.6694 1.5349 21.5669 1.59482C21.4644 1.65474 21.3503 1.69513 21.2312 1.71369L14.5016 2.76593L14.357 3.45017H19.2418C19.4856 3.45017 19.7194 3.54104 19.8918 3.70279C20.0642 3.86454 20.1611 4.08392 20.1611 4.31266V8.91262C20.161 9.85402 19.7822 10.7607 19.1004 11.4515C18.4187 12.1422 17.4842 12.5662 16.4837 12.6386V13.2251C16.4837 15.471 14.7676 17.3409 12.4999 17.7445V21.275H15.5644C15.8082 21.275 16.042 21.3659 16.2144 21.5276C16.3869 21.6894 16.4837 21.9088 16.4837 22.1375C16.4837 22.3663 16.3869 22.5856 16.2144 22.7474C16.042 22.9091 15.8082 23 15.5644 23H7.59672C7.3529 23 7.11906 22.9091 6.94665 22.7474C6.77424 22.5856 6.67738 22.3663 6.67738 22.1375C6.67738 21.9088 6.77424 21.6894 6.94665 21.5276C7.11906 21.3659 7.3529 21.275 7.59672 21.275H10.6612V17.7445C9.54046 17.5436 8.52947 16.9824 7.80232 16.1574C7.07516 15.3325 6.67734 14.2955 6.67738 13.2251V12.6386C5.6769 12.5662 4.7424 12.1422 4.06065 11.4515C3.3789 10.7607 3.00011 9.85402 3 8.91262V4.31266C3 4.08392 3.09686 3.86454 3.26927 3.70279C3.44168 3.54104 3.67552 3.45017 3.91934 3.45017H12.4815L12.8247 1.84364C12.8612 1.67198 12.9526 1.5148 13.0866 1.393C13.2205 1.27119 13.3909 1.19052 13.5749 1.16169L20.9297 0.0117019C21.0488 -0.00689723 21.1707 -0.00329635 21.2883 0.0222989C21.4059 0.0478942 21.517 0.0949823 21.6153 0.160873C21.7135 0.226764 21.797 0.310167 21.8608 0.406318C21.9247 0.502468 21.9677 0.609482 21.9875 0.721246ZM11.5622 7.76263L12.1138 5.17516H4.83869V7.76263H11.5622ZM18.3224 7.76263V5.17516H13.9892L13.4376 7.76263H18.3224Z" fill="#61D3F2"/>
</svg>
