<svg width="24" height="24" viewBox="0 0 24 24" fill="none" xmlns="http://www.w3.org/2000/svg">
<path d="M4.9375 2C4.68886 2 4.4504 2.07902 4.27459 2.21967C4.09877 2.36032 4 2.55109 4 2.75V9.75C4.00023 11.1451 4.63431 12.4925 5.78413 13.5413C6.93395 14.5901 8.52112 15.2688 10.25 15.451V20.508L7.44125 20.5C7.19261 20.4992 6.95376 20.5775 6.77724 20.7175C6.60072 20.8576 6.50099 21.0481 6.5 21.247C6.49901 21.4459 6.59682 21.637 6.77194 21.7782C6.94705 21.9194 7.18511 21.9992 7.43375 22L11.1837 22.011H11.19L15.565 22C15.8136 21.9995 16.0518 21.9199 16.2272 21.7789C16.4025 21.6379 16.5007 21.4469 16.5 21.248C16.4993 21.0491 16.3999 20.8585 16.2236 20.7183C16.0474 20.578 15.8086 20.4995 15.56 20.5L12.125 20.509V15.456C14.021 15.2724 15.7673 14.5397 17.034 13.3963C18.3007 12.2528 19.0001 10.7779 19 9.25V2.75C19 2.55109 18.9012 2.36032 18.7254 2.21967C18.5496 2.07902 18.3111 2 18.0625 2H4.9375ZM5.875 7V3.5H17.125V7H5.875ZM16.1037 9.707C15.9145 10.5034 15.4059 11.2287 14.655 11.773C14.0372 12.2232 13.2803 12.5332 12.4625 12.671C12.3002 12.6982 12.1311 12.6727 11.9923 12.6001C11.8535 12.5275 11.7565 12.4138 11.7225 12.284C11.6885 12.1542 11.7204 12.0189 11.8111 11.9078C11.9018 11.7968 12.044 11.7192 12.2062 11.692C12.8061 11.5918 13.3613 11.3646 13.8137 11.034C14.3623 10.6335 14.7349 10.1023 14.8763 9.519C14.91 9.39078 15.0053 9.27827 15.1416 9.20568C15.278 9.13309 15.4445 9.10623 15.6054 9.13087C15.7662 9.1555 15.9086 9.22968 16.0018 9.33742C16.095 9.44517 16.1316 9.57788 16.1037 9.707V9.707Z" fill="#B01313"/>
</svg>
