<svg width="24" height="24" viewBox="0 0 24 24" fill="none" xmlns="http://www.w3.org/2000/svg">
<g clip-path="url(#clip0)">
<path d="M21.9804 0.677857C21.9305 0.643857 21.8816 0.617857 21.8327 0.590857C21.2336 0.249626 20.5665 0.0724698 19.8896 0.0748568H19.8822C19.1418 0.0760915 18.4145 0.286952 17.7726 0.686533C17.1306 1.08611 16.5961 1.66054 16.2222 2.35286L16.2111 2.37486C15.9085 2.94005 15.725 3.5708 15.6739 4.22186L15.673 4.23886H6.81144L5.82005 1.64986C5.59747 1.06382 5.18935 0.582929 4.66895 0.293531C4.14855 0.00413361 3.54996 -0.0748163 2.98067 0.0708568L2.99728 0.0668568L0.000976562 0.804857L0.186515 1.69086L3.18282 0.952857C3.55558 0.860823 3.94636 0.914153 4.2864 1.10346C4.62645 1.29278 4.89397 1.60594 5.0419 1.98786L5.04559 1.99986L5.9059 4.23986H0.278823L9.68775 14.4329V21.8959C7.50282 22.0639 5.99544 22.8479 5.99544 23.8209V24.0019H15.0637V23.8209C15.0637 22.8489 13.5536 22.0609 11.3714 21.8959V14.4329L17.1711 8.14986C17.353 8.31686 17.5561 8.47186 17.7702 8.60786L17.7905 8.61986C18.7605 9.21743 19.9094 9.3748 20.9862 9.05759C22.063 8.74039 22.9801 7.97438 23.5372 6.92694C24.0943 5.8795 24.2461 4.63577 23.9594 3.46748C23.6727 2.29919 22.9708 1.30131 22.0071 0.691857L21.9868 0.679857L21.9804 0.677857ZM22.9025 4.18486L20.6004 4.19186L21.7459 2.03186C22.3715 2.55467 22.7855 3.32004 22.9007 4.16686L22.9025 4.18486ZM21.0213 1.57586L19.8757 3.74186L18.7182 1.58886C19.0882 1.42359 19.4848 1.3393 19.885 1.34086C20.2939 1.34086 20.6844 1.42686 21.0416 1.58386L21.0213 1.57586ZM17.2265 3.00486C17.4277 2.62586 17.6844 2.30686 17.9881 2.04986L17.9945 2.04486L19.1521 4.19786L16.8554 4.20486C16.9071 3.75586 17.0382 3.34986 17.2339 2.98886L17.2265 3.00386V3.00486ZM3.10067 5.50586H6.38775L6.84005 6.69286H4.19728L3.10067 5.50586ZM16.849 6.69386H16.0985V6.69986H7.7419L7.28959 5.51286H17.9364L16.849 6.69386ZM18.7367 7.71986L19.8822 5.55386L21.0397 7.70686C20.6954 7.86486 20.2948 7.95686 19.8748 7.95686C19.465 7.95686 19.0736 7.86986 18.7164 7.71086L18.7367 7.71886V7.71986ZM22.5314 6.29786C22.337 6.66625 22.0787 6.99052 21.7708 7.25286L21.7644 7.25786L20.6068 5.10486L22.9034 5.09886C22.8503 5.5262 22.7215 5.93841 22.5241 6.31286L22.5324 6.29686L22.5314 6.29786Z" fill="#F8CB2F"/>
</g>
<defs>
<clipPath id="clip0">
<rect width="24" height="24" fill="white"/>
</clipPath>
</defs>
</svg>
